PathFileType	4	(X/Y/Z)	C:\Users\u0145647\OneDrive - KU Leuven\KU Leuven\c3d2osim\CP16\T0\Data\Processed\ViconC3D\CP16_T0_11_gapFilled.trc
DataRate	CameraRate	NumFrames	NumMarkers	Units	OrigDataRate	OrigDataStartFrame	OrigNumFrames
100.000000	100.000000	7	47	mm	100.000000	1	666
Frame#	Time	C7			T10			CLAV			STRN			LSHO			RSHO			RBAK			LASI			RASI			LPSI			RPSI			LLAT			RLAT			LF1			LF2			LF3			LTHI			LKNE			LMEK			RF1			RF2			RF3			RTHI			RKNE			RMEK			LT1			LT2			LT3			LTIB			LMM			LANK			RT1			RT2			RT3			RTIB			RANK			RMM			LHEE			LSTL			LLCA			LTOE			LCM5			RHEE			RSTL			RLCA			RTOE			RCM5
		X1	Y1	Z1	X2	Y2	Z2	X3	Y3	Z3	X4	Y4	Z4	X5	Y5	Z5	X6	Y6	Z6	X7	Y7	Z7	X8	Y8	Z8	X9	Y9	Z9	X10	Y10	Z10	X11	Y11	Z11	X12	Y12	Z12	X13	Y13	Z13	X14	Y14	Z14	X15	Y15	Z15	X16	Y16	Z16	X17	Y17	Z17	X18	Y18	Z18	X19	Y19	Z19	X20	Y20	Z20	X21	Y21	Z21	X22	Y22	Z22	X23	Y23	Z23	X24	Y24	Z24	X25	Y25	Z25	X26	Y26	Z26	X27	Y27	Z27	X28	Y28	Z28	X29	Y29	Z29	X30	Y30	Z30	X31	Y31	Z31	X32	Y32	Z32	X33	Y33	Z33	X34	Y34	Z34	X35	Y35	Z35	X36	Y36	Z36	X37	Y37	Z37	X38	Y38	Z38	X39	Y39	Z39	X40	Y40	Z40	X41	Y41	Z41	X42	Y42	Z42	X43	Y43	Z43	X44	Y44	Z44	X45	Y45	Z45	X46	Y46	Z46	X47	Y47	Z47

1	0	NaN	NaN	NaN	-2730.7	1166.3	-152.03	NaN	NaN	NaN	NaN	NaN	NaN	-2591.5	1378	-305.13	-2617.1	1352.6	61.199	NaN	NaN	NaN	NaN	NaN	NaN	-2540.8	900.86	-71.842	-2735.7	942.85	-200.28	-2718.8	929.55	-122.38	-2653.4	993.13	-310.78	-2594.9	969.02	-31.371	-2659.6	662.23	-336.06	-2639.7	703.83	-339.6	-2684.7	700.61	-339.52	NaN	NaN	NaN	NaN	NaN	NaN	-2697.8	441.62	-179.17	-2550	684.25	-6.1793	-2584.9	712.09	-6.435	-2548.1	728.64	-11.383	NaN	NaN	NaN	-2477.8	454.1	-12.266	-2495.6	447.77	-129.24	-2736.7	377.01	-309.84	-2714.7	347.09	-293.15	-2751.9	328.94	-308.06	NaN	NaN	NaN	-2919.2	100.45	-225.78	NaN	NaN	NaN	-2498.2	314.27	6.1221	-2505.1	351.88	10.215	-2471.3	340.32	-4.289	NaN	NaN	NaN	-2546.9	53.266	10.584	-2547.9	57.357	-82.747	NaN	NaN	NaN	-2917	62.704	-234.16	-2921	80.252	-328.27	-2828.7	35.484	-320.8	-2855.1	32.548	-362.19	NaN	NaN	NaN	-2536.8	25.682	-79.874	-2528.8	30.593	16.923	-2429.2	33.822	-18.966	-2455.9	24.63	28.464
2	0.01	NaN	NaN	NaN	-2725	1167	-150.52	NaN	NaN	NaN	NaN	NaN	NaN	-2586.3	1380.2	-301.65	-2611.1	1352.6	64.548	NaN	NaN	NaN	NaN	NaN	NaN	-2535	902.67	-70.046	-2729.2	943.39	-200.45	-2713	930.89	-122.43	-2646.2	994.13	-310.15	-2590	970.16	-29.938	-2649.2	661.57	-334.14	-2629.7	703.6	-337.42	-2675.3	697.82	-338.17	NaN	NaN	NaN	NaN	NaN	NaN	-2684.9	441.12	-177.28	-2546.6	685.44	-4.556	-2581.2	713.65	-5.0246	-2544	729.61	-9.6582	NaN	NaN	NaN	-2477.5	454.65	-10.302	-2494.7	448.11	-127.92	-2727.2	374.98	-307.31	-2702.7	348.01	-291.18	-2739.6	330.81	-306.45	NaN	NaN	NaN	-2914.5	105.62	-226.48	NaN	NaN	NaN	-2499	315.81	8.535	-2505	351.97	11.267	-2471.1	340.35	-3.034	NaN	NaN	NaN	-2547	53.147	10.872	-2547.9	57.504	-82.317	-2976.9	121.13	-272.36	-2913.7	68.26	-234.74	-2918.9	84.974	-327.77	-2826.1	35.986	-320.56	-2852.3	35.744	-362.52	NaN	NaN	NaN	-2536.7	25.651	-79.678	-2529	30.435	17.177	-2429.2	33.505	-18.451	-2456.1	24.346	28.939
3	0.02	NaN	NaN	NaN	-2718.4	1166.2	-147.52	NaN	NaN	NaN	NaN	NaN	NaN	-2581.4	1382	-298.19	-2604.9	1352.3	67.656	NaN	NaN	NaN	NaN	NaN	NaN	-2529.8	904.9	-67.755	-2722.7	943.75	-200.85	-2707.2	932.05	-122.57	-2639.4	995.24	-309.88	-2585.3	971.34	-28.29	-2638.2	661.15	-332.08	-2619.3	703.29	-335.16	-2663.4	699.59	-335.91	NaN	NaN	NaN	NaN	NaN	NaN	-2671.3	440.79	-175.1	-2543.1	686.23	-3.0107	-2577.5	715.04	-3.5312	-2540.1	730.53	-7.7039	NaN	NaN	NaN	-2477.3	455.21	-8.3391	-2493.7	448.55	-126.45	-2714	375.96	-305.64	-2689.4	348.15	-289.46	-2731.2	330.03	-304.66	NaN	NaN	NaN	-2908.8	111.46	-226.65	-2910.8	121.17	-317.37	-2499	316.01	10.009	-2505.1	352.2	12.642	-2471.1	340.4	-1.514	NaN	NaN	NaN	-2547.1	53.134	11.318	-2547.9	57.624	-82.054	-2970.2	130.02	-272.67	-2909.5	74.096	-235.13	-2915	88.238	-327.1	-2823.2	36.699	-319.96	-2850.3	37.779	-361.92	NaN	NaN	NaN	-2536.6	26.14	-79.533	-2529	30.538	17.706	-2429.5	33.59	-17.462	-2456.4	24.013	29.535
4	0.03	NaN	NaN	NaN	-2713.9	1168	-147.11	NaN	NaN	NaN	NaN	NaN	NaN	-2576.7	1383.6	-294.83	-2598.7	1352.1	70.689	NaN	NaN	NaN	NaN	NaN	NaN	-2524.2	906.62	-66.204	-2716.3	943.92	-201.22	-2701.5	933.01	-122.69	-2631.9	995.12	-308.93	-2580.5	972.19	-26.823	-2626.8	660.04	-329.62	-2608.9	703	-333	-2654.1	695.3	-334.19	NaN	NaN	NaN	NaN	NaN	NaN	-2656.9	440.32	-172.8	-2540	687.14	-1.032	-2573.9	716.02	-1.9359	-2536.3	731.26	-5.6074	NaN	NaN	NaN	-2476.6	455.24	-6.6771	-2492.6	448.6	-124.69	-2700.3	376.83	-304.07	-2676.1	347.79	-287.53	-2717.6	329.82	-303.09	NaN	NaN	NaN	-2902.4	117.39	-226.7	-2905	126.95	-319.46	-2499	315.77	11.418	-2505	351.94	14.201	-2470.9	340.29	0.22286	NaN	NaN	NaN	-2547.1	52.616	11.54	-2547.4	57.754	-81.813	-2962.5	139.04	-272.62	-2904.1	78.225	-237.08	-2909.7	94.824	-327.25	-2819.9	37.613	-319.29	-2846.6	41.769	-361.89	-2612.5	43.034	-19.609	-2536.3	26.354	-78.911	-2529.3	30.071	18.023	-2429.6	33.485	-16.554	-2456.6	23.604	30.286
5	0.04	NaN	NaN	NaN	-2707.4	1166.9	-144.17	NaN	NaN	NaN	NaN	NaN	NaN	-2572.2	1385.1	-291.62	-2592.5	1351.7	73.619	NaN	NaN	NaN	NaN	NaN	NaN	-2519.1	908.73	-64.145	-2710	943.93	-201.47	-2695.9	933.69	-122.85	-2625.1	995.5	-308.42	-2575.7	972.72	-25.732	-2616.1	659.28	-326.37	-2598	702.41	-330.63	-2643.2	694.21	-332.11	NaN	NaN	NaN	NaN	NaN	NaN	-2642.1	440.2	-170.5	-2537	688.4	1.0439	-2570.2	717	-0.34058	-2532.5	731.92	-3.619	NaN	NaN	NaN	-2475.8	455.03	-5.041	-2491.5	448.89	-122.99	-2683.2	378.52	-303.09	-2662.4	348.33	-285.5	-2702.6	332.64	-301.51	NaN	NaN	NaN	-2895.2	124.01	-226.28	-2897.2	133.65	-318.44	-2499.1	315.67	12.957	-2505	351.66	15.739	-2470.8	339.77	1.6973	NaN	NaN	NaN	-2547.2	52.342	11.93	-2547	58.179	-81.461	-2954.3	148.42	-272.12	-2899	87.329	-235.15	-2905.4	103.29	-329.58	NaN	NaN	NaN	-2844.3	45.22	-362.21	-2612.6	43.11	-19.427	-2535.7	25.448	-78.478	-2529.4	29.732	18.533	-2429.8	33.434	-15.457	-2456.9	23.097	31.105
6	0.05	NaN	NaN	NaN	-2702.1	1166.9	-142.43	NaN	NaN	NaN	NaN	NaN	NaN	-2568.1	1386.4	-288.71	-2586.5	1351	76.366	NaN	NaN	NaN	NaN	NaN	NaN	-2513.9	910.5	-62.161	-2703.8	943.59	-201.76	-2690.5	934.19	-122.88	-2618.6	995.62	-307.81	-2571.1	973.49	-24.093	-2604.3	658.33	-324.59	-2587.4	702.23	-328.38	-2632.5	694.31	-328.7	NaN	NaN	NaN	NaN	NaN	NaN	-2626.3	439.34	-168.59	-2533.3	689.03	3.6424	-2566.6	717.98	1.2547	-2528.8	732.59	-1.6027	NaN	NaN	NaN	-2474.9	454.94	-3.3088	-2489.8	448.73	-121.07	-2670.5	377.54	-300.32	-2650.2	347.44	-282.58	-2690.7	332.87	-299.6	NaN	NaN	NaN	-2887.3	130.72	-226.1	-2889.4	141.19	-317.61	-2499.1	315.37	14.432	-2505.2	351.81	17.406	-2470.8	339.81	3.8658	NaN	NaN	NaN	-2547.3	52.144	12.426	-2546.2	58.739	-81.114	-2945.2	158.41	-270.87	-2892.9	94.598	-235.02	-2897.9	110.62	-325.93	NaN	NaN	NaN	-2842.9	49.131	-362.14	-2612.7	43.32	-19.135	-2535.4	25.765	-78.143	-2529.6	29.645	19.064	-2429.9	33.349	-14.418	-2457.3	22.557	32.011
7	0.06	NaN	NaN	NaN	-2696.8	1166.6	-140.76	NaN	NaN	NaN	NaN	NaN	NaN	-2563.8	1387.2	-285.83	-2580.5	1350	78.824	NaN	NaN	NaN	NaN	NaN	NaN	-2509	912.12	-59.963	-2697.7	943.05	-201.71	-2685.1	934.34	-122.98	-2612.1	995.46	-306.85	-2565.7	973.64	-22.069	-2592.5	657.14	-322.51	-2576.6	701.85	-326.01	-2620.2	693.7	-327.42	NaN	NaN	NaN	NaN	NaN	NaN	-2609.7	438.18	-166.86	-2530.7	689.1	4.8846	-2562.9	718.96	2.85	-2524.4	733.53	1.0524	NaN	NaN	NaN	-2473.9	454.83	-1.4792	-2488.3	449.26	-119.43	-2654	380.51	-299.94	-2634.7	349.05	-282.28	-2677.2	334.81	-298.25	NaN	NaN	NaN	-2878.6	137.43	-225.86	-2881.1	148.26	-317.37	-2499.6	315.97	16.529	-2505.1	351.77	19.027	-2470.7	339.85	5.9539	NaN	NaN	NaN	-2547.5	52.083	13.073	-2546	59.002	-80.78	-2934.9	167.95	-270.06	-2885.6	101.93	-234.86	-2891.3	116.35	-326.19	NaN	NaN	NaN	-2839.2	54.475	-362.5	-2612.8	43.732	-18.82	-2535.2	27.364	-78.185	-2529.7	29.371	19.492	-2429.8	32.917	-13.816	-2457.5	22.01	32.825
